<svg width="19" height="18" viewBox="0 0 19 18" fill="none" xmlns="http://www.w3.org/2000/svg">
<path d="M18.1419 17.0207L13.4581 12.4477C14.6847 11.1255 15.4383 9.37682 15.4383 7.45261C15.4377 3.33639 12.0207 0 7.80527 0C3.58986 0 0.172852 3.33639 0.172852 7.45261C0.172852 11.5688 3.58986 14.9052 7.80527 14.9052C9.62662 14.9052 11.2971 14.2802 12.6093 13.241L17.3112 17.832C17.5403 18.056 17.9123 18.056 18.1414 17.832C18.371 17.6081 18.371 17.2447 18.1419 17.0207ZM7.80527 13.7586C4.23857 13.7586 1.34721 10.9353 1.34721 7.45261C1.34721 3.96991 4.23857 1.14663 7.80527 1.14663C11.372 1.14663 14.2633 3.96991 14.2633 7.45261C14.2633 10.9353 11.372 13.7586 7.80527 13.7586Z" fill="white"/>
</svg>
