<svg width="24" height="24" viewBox="0 0 24 24" fill="none" xmlns="http://www.w3.org/2000/svg">
<path d="M5.26623 9.765C5.73412 8.34945 6.63709 7.11781 7.84635 6.2458C9.0556 5.37378 10.5094 4.90594 12.0002 4.909C13.6902 4.909 15.2182 5.509 16.4182 6.491L19.9102 3C17.7822 1.145 15.0552 0 12.0002 0C7.27023 0 3.19823 2.698 1.24023 6.65L5.26623 9.765Z" fill="#EA4335"/>
<path d="M16.0403 18.0145C14.9503 18.7175 13.5663 19.0925 12.0003 19.0925C10.5154 19.0956 9.06711 18.6315 7.86054 17.7659C6.65398 16.9003 5.75025 15.6771 5.2773 14.2695L1.2373 17.3365C2.22855 19.3428 3.76257 21.0309 5.66513 22.2091C7.56768 23.3872 9.76251 24.0082 12.0003 24.0015C14.9333 24.0015 17.7353 22.9585 19.8343 21.0015L16.0413 18.0145H16.0403Z" fill="#34A853"/>
<path d="M19.834 20.9984C22.029 18.9504 23.454 15.9024 23.454 11.9984C23.454 11.2884 23.345 10.5254 23.182 9.81641H12V14.4534H18.436C18.119 16.0124 17.266 17.2194 16.041 18.0114L19.834 20.9984Z" fill="#4A90E2"/>
<path d="M5.27712 14.2664C5.03247 13.5353 4.90819 12.7694 4.90912 11.9984C4.90912 11.2164 5.03412 10.4654 5.26612 9.76344L1.24012 6.64844C0.416494 8.31112 -0.00807994 10.143 0.000116455 11.9984C0.000116455 13.9184 0.445116 15.7284 1.23712 17.3334L5.27712 14.2664Z" fill="#FBBC05"/>
</svg>
