<svg width="25" height="25" viewBox="0 0 25 25" fill="none" xmlns="http://www.w3.org/2000/svg">
<g clip-path="url(#clip0_1_244)">
<path d="M24.3197 18.3475L20.8309 14.8587C19.5848 13.6126 17.4666 14.1111 16.9682 15.7309C16.5944 16.8523 15.3484 17.4753 14.227 17.2261C11.735 16.6031 8.37077 13.3634 7.74777 10.7468C7.37396 9.62537 8.12157 8.37936 9.24298 8.00561C10.8628 7.5072 11.3612 5.38899 10.1152 4.14298L6.62636 0.654155C5.62955 -0.218052 4.13434 -0.218052 3.26214 0.654155L0.894719 3.02157C-1.4727 5.51359 1.14392 12.1174 7.00016 17.9737C12.8564 23.8299 19.4602 26.5712 21.9523 24.0791L24.3197 21.7117C25.1919 20.7149 25.1919 19.2197 24.3197 18.3475Z" fill="white" fill-opacity="0.38"/>
</g>
<defs>
<clipPath id="clip0_1_244">
<rect width="25" height="25" fill="white"/>
</clipPath>
</defs>
</svg>
