<svg width="25" height="25" viewBox="0 0 25 25" fill="none" xmlns="http://www.w3.org/2000/svg">
<path d="M12.4997 20.932C17.1573 20.932 20.933 17.1563 20.933 12.4987C20.933 7.8411 17.1573 4.06536 12.4997 4.06536C7.84207 4.06536 4.06634 7.8411 4.06634 12.4987C4.06634 17.1563 7.84207 20.932 12.4997 20.932ZM22.8163 12.4987C22.8163 18.1964 18.1974 22.8154 12.4997 22.8154C6.80194 22.8154 2.18301 18.1964 2.18301 12.4987C2.18301 6.80096 6.80194 2.18203 12.4997 2.18203C18.1974 2.18203 22.8163 6.80096 22.8163 12.4987Z" fill="white" stroke="white" stroke-width="0.2"/>
<circle cx="12.4997" cy="18.0417" r="0.941667" fill="white" stroke="white" stroke-width="0.2"/>
<path fill-rule="evenodd" clip-rule="evenodd" d="M12.4238 8.8C11.6467 8.8 10.9831 9.29959 10.7372 9.99992C10.5727 10.4686 10.0619 10.7142 9.59635 10.5486C9.13081 10.3829 8.8868 9.86872 9.05135 9.40008C9.54186 8.00306 10.8653 7 12.4238 7C14.3989 7 16 8.61177 16 10.6C16 12.2775 14.8603 13.6869 13.3179 14.0866V15.1C13.3179 15.5971 12.9176 16 12.4238 16C11.93 16 11.5298 15.5971 11.5298 15.1V13.3C11.5298 12.8029 11.93 12.4 12.4238 12.4C13.4113 12.4 14.2119 11.5941 14.2119 10.6C14.2119 9.60589 13.4113 8.8 12.4238 8.8Z" fill="white" stroke="white" stroke-width="0.2" stroke-linecap="round" stroke-linejoin="round"/>
</svg>
