<svg width="31" height="31" viewBox="0 0 31 31" fill="none" xmlns="http://www.w3.org/2000/svg">
<g clip-path="url(#clip0_1_9455)">
<path d="M26.3156 20.2781C25.8724 20.2781 25.5118 19.9175 25.5118 19.4742V13.7961C25.5118 9.31322 22.5501 5.50913 18.4806 4.23759C18.6029 3.8969 18.6676 3.53521 18.6676 3.16719C18.6676 1.42083 17.2468 0 15.5003 0C13.7538 0 12.333 1.42083 12.333 3.16726C12.333 3.53813 12.3964 3.89928 12.5179 4.23832C8.44954 5.51047 5.48878 9.31402 5.48878 13.7962V19.4743C5.48878 19.9175 5.12818 20.2781 4.685 20.2781C2.91259 20.2781 1.4707 21.7201 1.4707 23.4924C1.4707 25.2648 2.91259 26.7067 4.685 26.7067H12.1834C12.111 26.9861 12.0731 27.2765 12.0731 27.5728C12.0731 29.4626 13.6106 31.0001 15.5003 31.0001C17.3901 31.0001 18.9276 29.4626 18.9276 27.5728C18.9276 27.2765 18.8896 26.9862 18.8172 26.7067H26.3155C28.088 26.7067 29.5298 25.2648 29.5298 23.4924C29.53 21.72 28.088 20.2781 26.3156 20.2781ZM14.1588 3.16726C14.1588 2.42757 14.7606 1.82579 15.5003 1.82579C16.24 1.82579 16.8418 2.42757 16.8418 3.16726C16.8418 3.40978 16.7762 3.64586 16.6541 3.85156C16.2754 3.80792 15.8905 3.78468 15.5003 3.78468C15.1105 3.78468 14.726 3.80786 14.3477 3.85144C14.2255 3.64634 14.1588 3.41215 14.1588 3.16726ZM17.1018 27.5728C17.1018 28.4558 16.3834 29.1742 15.5004 29.1742C14.6174 29.1742 13.8989 28.4558 13.8989 27.5728C13.8989 27.2608 13.9879 26.9626 14.1531 26.7067H16.8476C17.0129 26.9626 17.1018 27.2608 17.1018 27.5728ZM26.3156 24.8809H4.685C3.91939 24.8809 3.29649 24.258 3.29649 23.4924C3.29649 22.7267 3.91939 22.1038 4.685 22.1038C6.13492 22.1038 7.31457 20.9242 7.31457 19.4742V13.7961C7.31457 9.28249 10.9867 5.6104 15.5003 5.6104C20.014 5.6104 23.686 9.28249 23.686 13.7961V19.4742C23.686 20.9242 24.8657 22.1038 26.3156 22.1038C27.0812 22.1038 27.7041 22.7267 27.7041 23.4924C27.7042 24.258 27.0812 24.8809 26.3156 24.8809Z" fill="white"/>
<circle cx="27" cy="4" r="3" fill="#FF0000"/>
</g>
<defs>
<clipPath id="clip0_1_9455">
<rect width="31" height="31" fill="white"/>
</clipPath>
</defs>
</svg>
