<svg width="25" height="25" viewBox="0 0 25 25" fill="none" xmlns="http://www.w3.org/2000/svg">
<path d="M12.5 0C5.59376 0 0 5.59376 0 12.5C0 19.4062 5.59376 24.9999 12.5 24.9999C19.4062 24.9999 25 19.4062 25 12.5C25 5.59371 19.4062 0 12.5 0ZM2.50002 12.5C2.50002 6.97499 6.97499 2.49996 12.5 2.49996C14.8125 2.49996 16.9313 3.29373 18.625 4.60623L4.60623 18.625C3.29373 16.9312 2.50002 14.8125 2.50002 12.5ZM12.5 22.5C10.1875 22.5 8.0687 21.7062 6.375 20.3937L20.3937 6.37499C21.7062 8.06876 22.5 10.1875 22.5 12.5C22.5 18.025 18.025 22.5 12.5 22.5Z" fill="#FF0000"/>
</svg>
