<svg width="25" height="25" viewBox="0 0 25 25" fill="none" xmlns="http://www.w3.org/2000/svg">
<path d="M16.5723 12.6273L25.0004 17.9555V7.07422L16.5723 12.6273Z" fill="white" fill-opacity="0.38"/>
<path d="M0 7.07422V17.9555L8.42813 12.6273L0 7.07422Z" fill="white" fill-opacity="0.38"/>
<path d="M23.4375 3.90625H1.5625C0.782812 3.90625 0.164062 4.4875 0.046875 5.23594L12.5 13.4406L24.9531 5.23594C24.8359 4.4875 24.2172 3.90625 23.4375 3.90625Z" fill="white" fill-opacity="0.38"/>
<path d="M15.1404 13.5719L12.9295 15.0281C12.7982 15.1141 12.6498 15.1562 12.4998 15.1562C12.3498 15.1562 12.2014 15.1141 12.0701 15.0281L9.85918 13.5703L0.0498047 19.775C0.170117 20.5172 0.785742 21.0938 1.5623 21.0938H23.4373C24.2139 21.0938 24.8295 20.5172 24.9498 19.775L15.1404 13.5719Z" fill="white" fill-opacity="0.38"/>
</svg>
