<svg width="25" height="25" viewBox="0 0 25 25" fill="none" xmlns="http://www.w3.org/2000/svg">
<path d="M23.2955 10.2273H14.7727V1.70455C14.7727 0.763635 14.0091 0 13.0681 0H11.9319C10.9909 0 10.2273 0.763635 10.2273 1.70455V10.2273H1.70455C0.763635 10.2273 0 10.9909 0 11.9319V13.0681C0 14.0091 0.763635 14.7727 1.70455 14.7727H10.2273V23.2955C10.2273 24.2364 10.9909 25 11.9319 25H13.0681C14.0091 25 14.7727 24.2364 14.7727 23.2955V14.7727H23.2955C24.2364 14.7727 25 14.0091 25 13.0681V11.9319C25 10.9909 24.2364 10.2273 23.2955 10.2273Z" fill="#37E710"/>
</svg>
