<svg width="30" height="30" viewBox="0 0 30 30" fill="none" xmlns="http://www.w3.org/2000/svg">
<path d="M29.7426 0.257471C29.494 0.00879953 29.121 -0.0676652 28.7947 0.0628814L0.55251 11.3596C0.229366 11.4889 0.0129796 11.7966 0.000557715 12.1445C-0.0118055 12.4923 0.182257 12.8146 0.495381 12.9665L11.6322 18.3677L17.0334 29.5045C17.1807 29.8082 17.4884 29.9999 17.824 29.9999C17.8345 29.9999 17.845 29.9997 17.8554 29.9993C18.2032 29.9869 18.5111 29.7706 18.6402 29.4474L29.9371 1.2054C30.0677 0.878915 29.9912 0.506084 29.7426 0.257471ZM3.05235 12.2529L25.4718 3.28524L12.1107 16.6462L3.05235 12.2529ZM17.747 26.9476L13.3537 17.8891L26.7148 4.52813L17.747 26.9476Z" fill="#37E710"/>
</svg>
