<svg width="25" height="25" viewBox="0 0 25 25" fill="none" xmlns="http://www.w3.org/2000/svg">
<g clip-path="url(#clip0_1_250)">
<path d="M22.3958 14.0625C23.8312 14.0625 25 12.8937 25 11.4583L25 3.125C25 1.6896 23.8313 0.520849 22.3959 0.520849L19.2709 0.520849C18.6844 0.520849 18.1448 0.718749 17.7084 1.04795L17.7084 14.0625L22.3958 14.0625Z" fill="#FF0000"/>
<path d="M0.000344575 10.1576C0.00034452 10.7836 0.248246 11.3669 0.67847 11.7972C0.191995 12.3294 -0.0559053 13.043 0.0118189 13.7857C0.133695 15.1097 1.32642 16.1472 2.72847 16.1472L9.16284 16.1472C8.84409 17.1149 8.33369 18.8888 8.33369 20.3138C8.33369 22.5732 10.2535 24.4805 11.4587 24.4805C12.541 24.4805 13.3139 23.8711 13.3472 23.8461C13.4701 23.7471 13.542 23.5971 13.542 23.4388L13.542 19.9065L16.542 13.4076L16.667 13.344L16.667 2.17945C15.8191 1.77945 14.7462 1.56382 14.0628 1.56382L4.50137 1.56382C3.367 1.56382 2.37427 2.32842 2.14097 3.3836C2.0212 3.92632 2.09097 4.47319 2.3295 4.94819C1.55972 5.33569 1.042 6.12842 1.042 7.03257C1.042 7.40132 1.12637 7.75444 1.28677 8.07422C0.516996 8.46172 0.000344654 9.25444 0.000344575 10.1576Z" fill="#FF0000"/>
</g>
<defs>
<clipPath id="clip0_1_250">
<rect width="25" height="25" fill="white" transform="translate(25 25) rotate(-180)"/>
</clipPath>
</defs>
</svg>
