<svg width="13" height="12" viewBox="0 0 13 12" fill="none" xmlns="http://www.w3.org/2000/svg">
<g clip-path="url(#clip0_1754_2094)">
<path d="M1.49586 4.57031C1.32851 4.75711 1.22656 5.00367 1.22656 5.27344C1.22656 5.85492 1.69976 6.32813 2.28125 6.32813L4.32828 6.32813C4.12555 6.94336 4.03906 7.75969 4.03906 8.10961L4.03906 8.46094C4.03906 9.23625 4.67 9.86719 5.44531 9.86719L5.79688 9.86719C5.95813 9.86719 6.09875 9.7575 6.13789 9.60094L6.32938 8.83477C6.59773 7.7618 7.44969 6.57797 8.33141 6.36281C8.48586 6.75375 8.86719 7.03125 9.3125 7.03125L11.4219 7.03125C11.6159 7.03125 11.7734 6.87375 11.7734 6.67969L11.7734 0.351562C11.7734 0.1575 11.6159 1.37691e-08 11.4219 3.07346e-08L9.3125 2.15142e-07C8.8932 2.51798e-07 8.53039 0.245859 8.36047 0.601172L7.1525 0.198516C6.75758 0.0667977 6.34602 4.7448e-07 5.92953 5.10891e-07L2.98437 7.68364e-07C2.40289 8.19199e-07 1.92969 0.473204 1.92969 1.05469C1.92969 1.1918 1.95594 1.32305 2.00375 1.44328C1.55656 1.56539 1.22656 1.97531 1.22656 2.46094C1.22656 2.7307 1.32851 2.97727 1.49586 3.16406C1.32851 3.35086 1.22656 3.59742 1.22656 3.86719C1.22656 4.13695 1.32851 4.38352 1.49586 4.57031ZM8.96094 1.05469C8.96094 0.860859 9.11867 0.703125 9.3125 0.703125L11.0703 0.703125L11.0703 6.32813L9.3125 6.32813C9.11867 6.32813 8.96094 6.17039 8.96094 5.97656L8.96094 1.05469ZM2.98437 4.21875L2.28125 4.21875C2.08742 4.21875 1.92969 4.06102 1.92969 3.86719C1.92969 3.67336 2.08742 3.51563 2.28125 3.51563L2.98437 3.51563C3.17844 3.51563 3.33594 3.35813 3.33594 3.16406C3.33594 2.97 3.17844 2.8125 2.98437 2.8125L2.28125 2.8125C2.08742 2.8125 1.92969 2.65477 1.92969 2.46094C1.92969 2.26711 2.08742 2.10938 2.28125 2.10938L2.98437 2.10938C3.17844 2.10938 3.33594 1.95188 3.33594 1.75781C3.33594 1.56375 3.17844 1.40625 2.98437 1.40625C2.79055 1.40625 2.63281 1.24852 2.63281 1.05469C2.63281 0.86086 2.79055 0.703126 2.98437 0.703126L5.92953 0.703126C6.27031 0.703125 6.60711 0.757735 6.93031 0.865548L8.25781 1.30805L8.25781 5.65828C7.70633 5.76305 7.16656 6.11227 6.6793 6.68391C6.20352 7.24219 5.81773 7.98234 5.64734 8.66414L5.52242 9.16406L5.44531 9.16406C5.05766 9.16406 4.74219 8.84859 4.74219 8.46094L4.74219 8.10961C4.74219 7.63758 4.88984 6.73219 5.07875 6.32813L5.79687 6.32813C5.99094 6.32813 6.14844 6.17063 6.14844 5.97656C6.14844 5.7825 5.99094 5.625 5.79687 5.625L2.28125 5.625C2.08742 5.625 1.92969 5.46727 1.92969 5.27344C1.92969 5.07961 2.08742 4.92188 2.28125 4.92188L2.98437 4.92188C3.17844 4.92188 3.33594 4.76438 3.33594 4.57031C3.33594 4.37625 3.17844 4.21875 2.98437 4.21875Z" fill="#E71010"/>
<path d="M10.0156 1.40625C9.82146 1.40625 9.66406 1.56365 9.66406 1.75781C9.66406 1.95198 9.82146 2.10938 10.0156 2.10938C10.2098 2.10938 10.3672 1.95198 10.3672 1.75781C10.3672 1.56365 10.2098 1.40625 10.0156 1.40625Z" fill="#E71010"/>
<path d="M5.09375 12C5.28791 12 5.44531 11.8426 5.44531 11.6484L5.44531 10.9219C5.44531 10.7277 5.28791 10.5703 5.09375 10.5703C4.89959 10.5703 4.74219 10.7277 4.74219 10.9219L4.74219 11.6484C4.74219 11.8426 4.89959 12 5.09375 12Z" fill="#E71010"/>
<path d="M6.58553 10.4497L7.08271 10.9468C7.21998 11.0841 7.44259 11.0841 7.57989 10.9468C7.71719 10.8095 7.71719 10.5869 7.57989 10.4497L7.08271 9.95247C6.94543 9.8152 6.7228 9.81518 6.58553 9.95247C6.44823 10.0898 6.44823 10.3124 6.58553 10.4497Z" fill="#E71010"/>
<path d="M2.60774 10.9468C2.74502 11.0841 2.96763 11.0841 3.10492 10.9468L3.60211 10.4497C3.7394 10.3124 3.7394 10.0898 3.60211 9.95249C3.46483 9.8152 3.24222 9.81517 3.10492 9.95247L2.60774 10.4497C2.47045 10.5869 2.47045 10.8095 2.60774 10.9468Z" fill="#E71010"/>
</g>
<defs>
<clipPath id="clip0_1754_2094">
<rect width="12" height="12" fill="white" transform="translate(12.5 12) rotate(180)"/>
</clipPath>
</defs>
</svg>
