<svg width="30" height="30" viewBox="0 0 30 30" fill="none" xmlns="http://www.w3.org/2000/svg">
<path d="M15 0C6.729 0 0 6.729 0 15C0 23.271 6.729 30 15 30C23.271 30 30 23.271 30 15C30 6.729 23.271 0 15 0ZM15 27.2727C8.23282 27.2727 2.72727 21.7672 2.72727 15C2.72727 8.23282 8.23282 2.72727 15 2.72727C21.7672 2.72727 27.2727 8.23282 27.2727 15C27.2727 21.7672 21.7672 27.2727 15 27.2727Z" fill="#37E710"/>
<path d="M18.6639 18.665C16.6434 20.6854 13.3561 20.6854 11.3357 18.6651C10.8032 18.1325 9.93977 18.1325 9.40722 18.6651C8.87468 19.1976 8.87468 20.061 9.40722 20.5935C10.9493 22.1356 12.9741 22.9064 14.9999 22.9064C17.0249 22.9064 19.0508 22.1353 20.5925 20.5935C21.125 20.0611 21.125 19.1976 20.5925 18.6651C20.0599 18.1324 19.1964 18.1325 18.6639 18.665Z" fill="#37E710"/>
<path d="M10.4669 13.3771C10.806 13.0389 10.9996 12.5698 10.9996 12.0916C10.9996 11.6134 10.806 11.1443 10.4669 10.8062C10.1287 10.468 9.65964 10.2734 9.18146 10.2734C8.70228 10.2734 8.23419 10.468 7.89592 10.8062C7.55692 11.1443 7.36328 11.6134 7.36328 12.0916C7.36328 12.5698 7.55692 13.0389 7.89592 13.3771C8.23419 13.7162 8.70328 13.9098 9.18146 13.9098C9.65964 13.9098 10.1287 13.7162 10.4669 13.3771Z" fill="#37E710"/>
<path d="M20.8182 10.2734C20.34 10.2734 19.8709 10.468 19.5326 10.8062C19.1945 11.1443 19 11.6125 19 12.0916C19 12.5707 19.1945 13.0389 19.5326 13.3771C19.8709 13.7162 20.34 13.9098 20.8182 13.9098C21.2964 13.9098 21.7655 13.7162 22.1036 13.3771C22.4418 13.0389 22.6364 12.5707 22.6364 12.0916C22.6364 11.6134 22.4417 11.1443 22.1036 10.8062C21.7655 10.468 21.2964 10.2734 20.8182 10.2734Z" fill="#37E710"/>
</svg>
