<svg width="30" height="30" viewBox="0 0 30 30" fill="none" xmlns="http://www.w3.org/2000/svg">
<g clip-path="url(#clip0_1_209)">
<path d="M6.25 13.75C7.62874 13.75 8.74999 12.6287 8.74999 11.25C8.74999 9.87125 7.62874 8.75 6.25 8.75C4.87125 8.75 3.75 9.87125 3.75 11.25C3.75 12.6287 4.87125 13.75 6.25 13.75Z" fill="#37E710"/>
<path d="M26.25 6.25H13.0175L10.885 4.11625C10.65 3.88125 10.3325 3.75 10 3.75H3.75C1.6825 3.75 0 5.4325 0 7.5V22.5C0 24.5675 1.6825 26.25 3.75 26.25H26.25C28.3175 26.25 30 24.5675 30 22.5V10C30 7.9325 28.3175 6.25 26.25 6.25ZM3.75 6.25H9.4825L11.6163 8.38375C11.85 8.61875 12.1687 8.75 12.5 8.75H26.25C26.9387 8.75 27.5 9.31125 27.5 10V18.6737L20.925 12.0988C20.07 11.2437 18.6788 11.2437 17.825 12.0988L11.875 18.0487L10.3 16.4738C9.445 15.6187 8.05375 15.6187 7.2 16.4738L2.5 21.1737V7.5C2.5 6.81125 3.06125 6.25 3.75 6.25Z" fill="#37E710"/>
</g>
<defs>
<clipPath id="clip0_1_209">
<rect width="30" height="30" fill="white"/>
</clipPath>
</defs>
</svg>
