<svg width="22" height="22" viewBox="0 0 22 22" fill="none" xmlns="http://www.w3.org/2000/svg">
<path d="M2.72656 15.6686V19.0749H6.13281L16.179 9.02871L12.7727 5.62246L2.72656 15.6686ZM18.8131 6.39454C18.8974 6.31051 18.9642 6.21069 19.0097 6.10081C19.0553 5.99093 19.0788 5.87313 19.0788 5.75417C19.0788 5.6352 19.0553 5.51741 19.0097 5.40753C18.9642 5.29764 18.8974 5.19783 18.8131 5.11379L16.6876 2.98829C16.6036 2.90409 16.5038 2.83728 16.3939 2.7917C16.284 2.74612 16.1662 2.72266 16.0473 2.72266C15.9283 2.72266 15.8105 2.74612 15.7006 2.7917C15.5907 2.83728 15.4909 2.90409 15.4069 2.98829L13.7446 4.65054L17.1509 8.05679L18.8131 6.39454V6.39454Z" fill="white"/>
</svg>
