<svg width="30" height="30" viewBox="0 0 30 30" fill="none" xmlns="http://www.w3.org/2000/svg">
<path d="M15 9.19922C10.9614 9.19922 7.67578 12.4849 7.67578 16.5234C7.67578 20.562 10.9614 23.8477 15 23.8477C19.0386 23.8477 22.3242 20.562 22.3242 16.5234C22.3242 12.4849 19.0386 9.19922 15 9.19922ZM15 21.5039C12.2538 21.5039 10.0195 19.2697 10.0195 16.5234C10.0195 13.7772 12.2538 11.543 15 11.543C17.7462 11.543 19.9805 13.7772 19.9805 16.5234C19.9805 19.2697 17.7462 21.5039 15 21.5039Z" fill="#37E710"/>
<path d="M26.4844 5.68359H22.1733C22.0369 5.68359 21.9139 5.60912 21.8506 5.48865L20.6579 2.98242C20.6546 2.97557 20.6514 2.96877 20.6479 2.96197C20.1862 2.03854 19.258 1.46484 18.2255 1.46484H11.858C10.8255 1.46484 9.89725 2.03854 9.43559 2.96203C9.43213 2.96883 9.42885 2.97563 9.42557 2.98248L8.23283 5.48883C8.16955 5.60912 8.04662 5.68359 7.91016 5.68359H3.51562C1.57711 5.68359 0 7.2607 0 9.19922V25.0195C0 26.958 1.57711 28.5352 3.51562 28.5352H26.4844C28.4229 28.5352 30 26.958 30 25.0195V9.19922C30 7.2607 28.4229 5.68359 26.4844 5.68359ZM27.6562 25.0195C27.6562 25.6656 27.1305 26.1913 26.4844 26.1913H3.51562C2.86945 26.1913 2.34375 25.6656 2.34375 25.0195V9.19922C2.34375 8.55305 2.86945 8.02734 3.51562 8.02734H7.91016C8.94258 8.02734 9.87082 7.45371 10.3325 6.53027C10.336 6.52348 10.3393 6.51662 10.3426 6.50977L11.5354 4.00342C11.5986 3.88307 11.7215 3.80859 11.858 3.80859H18.2255C18.362 3.80859 18.4849 3.88307 18.5481 4.00336L19.7409 6.50971C19.7442 6.51656 19.7475 6.52342 19.751 6.53021C20.2127 7.45365 21.1409 8.02728 22.1733 8.02728H26.4844C27.1305 8.02728 27.6562 8.55299 27.6562 9.19916V25.0195Z" fill="#37E710"/>
<path d="M25.3125 10.3711H22.9688V12.7148H25.3125V10.3711Z" fill="#37E710"/>
</svg>
