<svg width="13" height="14" viewBox="0 0 13 14" fill="none" xmlns="http://www.w3.org/2000/svg">
<path fill-rule="evenodd" clip-rule="evenodd" d="M2.10156 6.20312C2.10156 4.12445 3.70296 2.51562 5.58635 2.51562C7.46975 2.51562 9.07114 4.12445 9.07114 6.20312C9.07114 8.28178 7.46975 9.89061 5.58635 9.89061C3.70296 9.89061 2.10156 8.28178 2.10156 6.20312ZM5.58635 0.515625C2.51599 0.515625 0.101562 3.10412 0.101562 6.20312C0.101562 9.30211 2.51599 11.8906 5.58635 11.8906C6.75298 11.8906 7.82491 11.5169 8.70568 10.8835L11.0557 13.3397C11.4375 13.7388 12.0705 13.7528 12.4696 13.371C12.8687 12.9892 12.8826 12.3562 12.5008 11.9571L10.0945 9.44197C10.7119 8.51779 11.0711 7.39843 11.0711 6.20312C11.0711 3.10412 8.65672 0.515625 5.58635 0.515625Z" fill="#37E710"/>
</svg>
