<svg width="14" height="12" viewBox="0 0 14 12" fill="none" xmlns="http://www.w3.org/2000/svg">
<path d="M12.3797 7.42969C12.5679 7.24289 12.6826 6.99633 12.6826 6.72656C12.6826 6.14508 12.1503 5.67188 11.4961 5.67188H9.19318C9.42126 5.05664 9.51855 4.24031 9.51855 3.89039V3.53906C9.51855 2.76375 8.80875 2.13281 7.93652 2.13281H7.54102C7.35961 2.13281 7.20141 2.2425 7.15737 2.39906L6.94195 3.16523C6.64005 4.2382 5.6816 5.42203 4.68967 5.63719C4.51591 5.24625 4.08691 4.96875 3.58594 4.96875H1.21289C0.99457 4.96875 0.817383 5.12625 0.817383 5.32031V11.6484C0.817383 11.8425 0.99457 12 1.21289 12H3.58594C4.05765 12 4.46581 11.7541 4.65697 11.3988L6.01594 11.8015C6.46022 11.9332 6.92323 12 7.39178 12H10.7051C11.3592 12 11.8916 11.5268 11.8916 10.9453C11.8916 10.8082 11.8621 10.677 11.8083 10.5567C12.3114 10.4346 12.6826 10.0247 12.6826 9.53906C12.6826 9.2693 12.5679 9.02273 12.3797 8.83594C12.5679 8.64914 12.6826 8.40258 12.6826 8.13281C12.6826 7.86305 12.5679 7.61648 12.3797 7.42969ZM3.98145 10.9453C3.98145 11.1391 3.80399 11.2969 3.58594 11.2969H1.6084V5.67188H3.58594C3.80399 5.67188 3.98145 5.82961 3.98145 6.02344V10.9453ZM10.7051 7.78125H11.4961C11.7142 7.78125 11.8916 7.93898 11.8916 8.13281C11.8916 8.32664 11.7142 8.48438 11.4961 8.48438H10.7051C10.4868 8.48438 10.3096 8.64187 10.3096 8.83594C10.3096 9.03 10.4868 9.1875 10.7051 9.1875H11.4961C11.7142 9.1875 11.8916 9.34523 11.8916 9.53906C11.8916 9.73289 11.7142 9.89062 11.4961 9.89062H10.7051C10.4868 9.89062 10.3096 10.0481 10.3096 10.2422C10.3096 10.4362 10.4868 10.5938 10.7051 10.5938C10.9231 10.5938 11.1006 10.7515 11.1006 10.9453C11.1006 11.1391 10.9231 11.2969 10.7051 11.2969H7.39178C7.0084 11.2969 6.6295 11.2423 6.2659 11.1345L4.77246 10.692V6.34172C5.39288 6.23695 6.00012 5.88773 6.54829 5.31609C7.08355 4.75781 7.51755 4.01766 7.70924 3.33586L7.84978 2.83594H7.93652C8.37264 2.83594 8.72754 3.15141 8.72754 3.53906V3.89039C8.72754 4.36242 8.56143 5.26781 8.34891 5.67188H7.54102C7.3227 5.67188 7.14551 5.82938 7.14551 6.02344C7.14551 6.2175 7.3227 6.375 7.54102 6.375H11.4961C11.7142 6.375 11.8916 6.53273 11.8916 6.72656C11.8916 6.92039 11.7142 7.07812 11.4961 7.07812H10.7051C10.4868 7.07812 10.3096 7.23562 10.3096 7.42969C10.3096 7.62375 10.4868 7.78125 10.7051 7.78125Z" fill="#37E710"/>
<path d="M2.79492 10.5938C3.01335 10.5938 3.19043 10.4364 3.19043 10.2422C3.19043 10.048 3.01335 9.89062 2.79492 9.89062C2.57649 9.89062 2.39941 10.048 2.39941 10.2422C2.39941 10.4364 2.57649 10.5938 2.79492 10.5938Z" fill="#37E710"/>
<path d="M8.33203 0C8.11361 0 7.93652 0.157406 7.93652 0.351562V1.07812C7.93652 1.27228 8.11361 1.42969 8.33203 1.42969C8.55046 1.42969 8.72754 1.27228 8.72754 1.07812V0.351562C8.72754 0.157406 8.55046 0 8.33203 0Z" fill="#37E710"/>
<path d="M6.65406 1.55035L6.09473 1.05317C5.9403 0.915871 5.68986 0.915871 5.5354 1.05317C5.38094 1.19046 5.38094 1.41305 5.5354 1.55035L6.09473 2.04753C6.24916 2.1848 6.49962 2.18482 6.65406 2.04753C6.80852 1.91023 6.80852 1.68764 6.65406 1.55035Z" fill="#37E710"/>
<path d="M11.1287 1.05317C10.9742 0.915871 10.7238 0.915871 10.5693 1.05317L10.01 1.55032C9.85555 1.68762 9.85555 1.91021 10.01 2.04751C10.1644 2.1848 10.4149 2.18483 10.5693 2.04753L11.1287 1.55035C11.2831 1.41305 11.2831 1.19047 11.1287 1.05317Z" fill="#37E710"/>
</svg>
